<svg width="24" height="24" viewBox="0 0 24 24" fill="none" xmlns="http://www.w3.org/2000/svg">
<g clip-path="url(#clip0_243_206)">
<path fill-rule="evenodd" clip-rule="evenodd" d="M6.64628 10.7417C6.40733 10.5029 6.21777 10.2194 6.08844 9.90732C5.95911 9.59523 5.89255 9.26072 5.89255 8.92289C5.89255 8.58507 5.95911 8.25056 6.08844 7.93847C6.21777 7.62638 6.40733 7.34284 6.64628 7.10404L12.792 0.960036C13.0308 0.721082 13.3143 0.531524 13.6264 0.402195C13.9385 0.272865 14.273 0.206299 14.6109 0.206299C14.9487 0.206299 15.2832 0.272865 15.5953 0.402195C15.9074 0.531524 16.1909 0.721082 16.4297 0.960036L19.1434 3.67546C19.6255 4.15768 19.8963 4.81161 19.8963 5.49346C19.8963 6.17531 19.6255 6.82925 19.1434 7.31146L16.9886 9.46461L23.4857 15.96C23.605 16.0796 23.6996 16.2214 23.7641 16.3775C23.8286 16.5336 23.8617 16.7009 23.8616 16.8698C23.8614 17.0387 23.828 17.2059 23.7632 17.3619C23.6984 17.5179 23.6035 17.6596 23.484 17.7789C23.3645 17.8982 23.2226 17.9928 23.0665 18.0573C22.9104 18.1218 22.7431 18.1549 22.5742 18.1547C22.4053 18.1546 22.2381 18.1211 22.0821 18.0564C21.9261 17.9916 21.7845 17.8967 21.6651 17.7772L15.1714 11.2852L12.9977 13.4572C12.5156 13.9387 11.862 14.2092 11.1806 14.2092C10.4991 14.2092 9.84557 13.9387 9.36343 13.4572L6.64628 10.7417ZM2.28171 21.2229H1.42457C1.08358 21.2229 0.75655 21.3584 0.515432 21.5995C0.274314 21.8406 0.138855 22.1676 0.138855 22.5086C0.138855 22.8496 0.274314 23.1766 0.515432 23.4177C0.75655 23.6589 1.08358 23.7943 1.42457 23.7943H14.2817C14.6227 23.7943 14.9497 23.6589 15.1908 23.4177C15.432 23.1766 15.5674 22.8496 15.5674 22.5086C15.5674 22.1676 15.432 21.8406 15.1908 21.5995C14.9497 21.3584 14.6227 21.2229 14.2817 21.2229H13.4246V18.2229C13.4246 17.9956 13.3343 17.7775 13.1735 17.6168C13.0128 17.4561 12.7948 17.3658 12.5674 17.3658H3.13886C2.91153 17.3658 2.69351 17.4561 2.53276 17.6168C2.37202 17.7775 2.28171 17.9956 2.28171 18.2229V21.2229Z" fill="white"/>
</g>
<defs>
<clipPath id="clip0_243_206">
<rect width="24" height="24" fill="white"/>
</clipPath>
</defs>
</svg>
